<svg width="16" height="16" viewBox="0 0 16 16" fill="none" xmlns="http://www.w3.org/2000/svg">
<path fill-rule="evenodd" clip-rule="evenodd" d="M8.59972 12.6V11.9575C9.78984 11.7872 10.819 11.118 11.4685 10.1686C13.0972 9.94436 14 8.53368 14 6.59985V4.79985C14 4.13711 13.4628 3.59985 12.8 3.59985H12.039C11.8315 3.24125 11.4438 3 10.9997 3H4.99977C4.55567 3 4.16792 3.24125 3.96041 3.59985H3.19998C2.53725 3.59985 2 4.13711 2 4.79985V6.59985C2 8.53344 2.90262 9.944 4.53085 10.1685C5.18038 11.118 6.20958 11.7872 7.39974 11.9575V12.6H6.79975C6.13702 12.6 5.59977 13.1373 5.59977 13.8H10.3997C10.3997 13.1373 9.86244 12.6 9.19971 12.6H8.59972ZM3.19998 4.79985H3.79979V7.8C3.79979 8.07452 3.82613 8.34289 3.87642 8.60272C3.43405 8.20438 3.19998 7.51844 3.19998 6.59985V4.79985ZM12.1997 4.79985V7.8C12.1997 8.07474 12.1733 8.34331 12.1229 8.60333C12.5657 8.20508 12.8 7.5189 12.8 6.59985V4.79985H12.1997ZM4.99921 7.79971V4.19971H10.9991V7.79971C10.9991 9.45656 9.65599 10.7997 7.99916 10.7997C6.34233 10.7997 4.99921 9.45656 4.99921 7.79971Z" fill="#EEB400"/>
</svg>
