<svg width="16" height="16" viewBox="0 0 16 16" fill="none" xmlns="http://www.w3.org/2000/svg">
<path d="M6.21103 2.53539C6.61392 2.19433 7.19818 2 7.81988 2C8.44159 2 9.02585 2.19433 9.42873 2.53539H9.9621C10.5537 2.53539 11.0332 3.0148 11.0332 3.60618V3.60754H11.5689C12.1604 3.60754 12.64 4.08695 12.64 4.67833V4.72838H12.2227L12.0121 4.48568C11.7806 4.21902 11.2845 4.02412 10.7135 4.02412C10.1424 4.02412 9.64633 4.21902 9.41487 4.48568L9.20421 4.72838H7.89556V5.21235H5.67766C5.28176 5.21235 4.93603 4.99763 4.75064 4.67833H4.07111V12.7092H11.5689V5.43265H12.64V12.7092C12.64 13.3006 12.1604 13.78 11.5689 13.78H4.07111C3.47955 13.78 3 13.3006 3 12.7092V4.67833C3 4.08695 3.47955 3.60754 4.07111 3.60754H4.60655V3.60618C4.60655 3.0148 5.0861 2.53539 5.67766 2.53539H6.21103Z" fill="#00EEB4"/>
<path d="M5.67709 10.0294V8.9586H8.89042V10.0294H5.67709Z" fill="#00EEB4"/>
<path d="M5.67709 6.81818V7.88897H9.96153V6.81818H5.67709Z" fill="#00EEB4"/>
</svg>