<svg width="16" height="16" viewBox="0 0 16 16" fill="none" xmlns="http://www.w3.org/2000/svg">
<path fill-rule="evenodd" clip-rule="evenodd" d="M11.2786 3.34868C11.0577 3.126 10.7552 3 10.4396 3C10.1244 3 9.82216 3.12572 9.59995 3.34926L5.56615 7.38293C5.2057 7.70052 4.96941 8.17311 4.92834 8.68135L4.92678 10.231V10.713H6.91966C7.46639 10.6755 7.94363 10.4369 8.2803 10.0485L12.2913 6.03935C12.5138 5.81682 12.6388 5.51502 12.6388 5.20032C12.6388 4.88562 12.5138 4.58382 12.2913 4.36129L11.2786 3.34868ZM6.88599 9.75055C7.14348 9.73232 7.38317 9.61248 7.57564 9.39233L10.4974 6.47068L9.16979 5.14306L6.22667 8.08516C6.03139 8.25787 5.91058 8.4995 5.89115 8.72054V9.74964L6.88599 9.75055ZM9.85155 4.46153L11.179 5.78904L11.61 5.35808C11.6517 5.31634 11.6752 5.25972 11.6752 5.20069C11.6752 5.14166 11.6517 5.08504 11.61 5.0433L10.596 4.02935C10.5547 3.98775 10.4986 3.96435 10.44 3.96435C10.3813 3.96435 10.3252 3.98775 10.2839 4.02935L9.85155 4.46153Z" fill="#00B4EE"/>
<path d="M12.64 11.676V8.3021H11.676V11.676H3.964V3.96419H7.338V3.00021H3.964C3.4316 3.00021 3 3.4318 3 3.96419V11.676C3 12.2084 3.4316 12.64 3.964 12.64H11.676C12.2084 12.64 12.64 12.2084 12.64 11.676Z" fill="#00B4EE"/>
</svg>
