<svg width="21" height="21" viewBox="0 0 21 21" fill="none" xmlns="http://www.w3.org/2000/svg">
<path d="M15.3571 5.30419C14.0335 4.06486 12.3158 3.38549 10.4936 3.3871C7.21409 3.38998 4.3829 5.63859 3.6012 8.75776C3.5443 8.98483 3.34201 9.14516 3.10792 9.14516H0.68178C0.364325 9.14516 0.123163 8.85696 0.181887 8.54497C1.09797 3.68025 5.3691 0 10.5 0C13.3133 0 15.8682 1.10656 17.7533 2.90803L19.2654 1.39591C19.9055 0.755788 21 1.20915 21 2.11444V7.79032C21 8.35152 20.5451 8.80645 19.9839 8.80645H14.308C13.4027 8.80645 12.9493 7.71195 13.5895 7.07179L15.3571 5.30419ZM1.01613 12.1935H6.69201C7.5973 12.1935 8.05066 13.288 7.41054 13.9282L5.6429 15.6958C6.9665 16.9352 8.68431 17.6146 10.5066 17.6129C13.7844 17.61 16.6167 15.3629 17.3988 12.2423C17.4557 12.0153 17.658 11.8549 17.8921 11.8549H20.3183C20.6357 11.8549 20.8769 12.1431 20.8182 12.4551C19.902 17.3197 15.6309 21 10.5 21C7.68668 21 5.13183 19.8934 3.24674 18.092L1.73462 19.6041C1.0945 20.2442 0 19.7908 0 18.8856V13.2097C0 12.6485 0.454929 12.1935 1.01613 12.1935Z" fill="#42A5F5"/>
</svg>
