<svg width="16" height="16" viewBox="0 0 16 16" fill="none" xmlns="http://www.w3.org/2000/svg">
<path fill-rule="evenodd" clip-rule="evenodd" d="M12.64 12.64H4.60667C3.71933 12.64 3 11.9926 3 11.194V4.446C3 3.6474 3.71933 3 4.60667 3H12.64V10.712C12.3442 10.712 12.1044 10.9278 12.1044 11.194C12.1044 11.4602 12.3442 11.676 12.64 11.676V12.64ZM11.0325 11.1933C11.0325 11.0243 11.0647 10.8621 11.124 10.7113H4.60587C4.31009 10.7113 4.07031 10.9271 4.07031 11.1933C4.07031 11.4595 4.31009 11.6753 4.60587 11.6753H11.124C11.0647 11.5245 11.0325 11.3623 11.0325 11.1933ZM4.60587 3.96376H11.5681V9.74776H4.60587C4.41808 9.74776 4.23782 9.77676 4.07031 9.83004V4.44576C4.07031 4.17956 4.31009 3.96376 4.60587 3.96376Z" fill="#00B4EE"/>
</svg>
