<svg width="16" height="16" viewBox="0 0 16 16" fill="none" xmlns="http://www.w3.org/2000/svg">
<path fill-rule="evenodd" clip-rule="evenodd" d="M10.0714 12.2857V10.9454C10.0714 10.8723 10.0937 10.7889 10.1469 10.6811C10.2057 10.5619 10.2961 10.4246 10.4416 10.231C10.4505 10.2192 10.483 10.177 10.5275 10.1191L10.5276 10.119L10.5278 10.1188L10.5278 10.1188C10.6419 9.97055 10.8344 9.72034 10.9107 9.61656C11.6295 8.6393 11.9986 7.7319 12 6.50719C12 6.5048 12 6.5024 12 6.5C12 4.01472 9.98528 2 7.5 2C5.01472 2 3 4.01472 3 6.5C3 7.70206 3.36414 8.57786 4.09048 9.5589C4.1622 9.65577 4.35651 9.90902 4.44541 10.0249L4.49015 10.0833C4.62333 10.2594 4.71161 10.3867 4.77908 10.5026C4.8841 10.6829 4.92857 10.8198 4.92857 10.9454V12.2857C4.92857 13.7059 6.07984 14.8571 7.5 14.8571C8.92016 14.8571 10.0714 13.7059 10.0714 12.2857ZM8.78568 12.0684V12.2858C8.78568 12.9959 8.21004 13.5716 7.49996 13.5716C6.78988 13.5716 6.21425 12.9959 6.21425 12.2858V12.0684C6.62085 12.2127 7.05042 12.2854 7.50002 12.2854C7.94958 12.2854 8.37911 12.2127 8.78568 12.0684Z" fill="#EEB400"/>
</svg>
