<svg width="16" height="16" viewBox="0 0 16 16" fill="none" xmlns="http://www.w3.org/2000/svg">
<path fill-rule="evenodd" clip-rule="evenodd" d="M8.05065 11.5003L4.50002 13.7195V11.5003H3.33335C2.68902 11.5003 2.16669 10.978 2.16669 10.3337V3.33366C2.16669 2.68933 2.68902 2.16699 3.33335 2.16699H12.6667C13.311 2.16699 13.8334 2.68933 13.8334 3.33366V10.3337C13.8334 10.978 13.311 11.5003 12.6667 11.5003H8.05065ZM5.66669 11.6145L7.71605 10.3337H12.6667V3.33366H3.33335V10.3337H5.66669V11.6145ZM7.41669 4.50033V6.25033H5.66669V7.41699H7.41669V9.16699H8.58335V7.41699H10.3334V6.25033H8.58335V4.50033H7.41669Z" fill="#A554F5"/>
</svg>
