<svg width="9" height="11" viewBox="0 0 9 11" fill="none" xmlns="http://www.w3.org/2000/svg">
<path fill-rule="evenodd" clip-rule="evenodd" d="M3.01973 1.05448C3.35163 0.773426 3.83296 0.613281 4.34513 0.613281C4.85731 0.613281 5.33863 0.773426 5.67054 1.05448H6.10994C6.59728 1.05448 6.99234 1.44955 6.99234 1.93689V1.93693H7.43325C7.92059 1.93693 8.31565 2.33199 8.31565 2.81933V9.43735C8.31565 9.92469 7.92059 10.3198 7.43325 10.3198H1.25643C0.769089 10.3198 0.374023 9.92469 0.374023 9.43735V2.81933C0.374023 2.33199 0.769089 1.93693 1.25643 1.93693H1.69792V1.93689C1.69792 1.44955 2.09299 1.05448 2.58032 1.05448H3.01973ZM6.10994 3.26049C6.43654 3.26049 6.72169 3.08306 6.87427 2.81933H7.43325V9.43735H1.25643V2.81933H1.81599C1.96857 3.08306 2.25373 3.26049 2.58032 3.26049H6.10994ZM2.57977 7.23082V6.34842H5.22698V7.23082H2.57977ZM2.57977 4.58422V5.46662H6.10938V4.58422H2.57977ZM3.39935 1.93659L3.53129 1.78454C3.67624 1.61748 3.98694 1.49538 4.34458 1.49538C4.70221 1.49538 5.01291 1.61748 5.15787 1.78454L5.2898 1.93659H6.10938V2.37779H2.57977V1.93659H3.19805H3.39935Z" fill="#00EEB4"/>
</svg>
