<svg width="16" height="16" viewBox="0 0 16 16" fill="none" xmlns="http://www.w3.org/2000/svg">
<path fill-rule="evenodd" clip-rule="evenodd" d="M8.37343 11.8133V11.2904C9.34233 11.1518 10.1802 10.6073 10.7091 9.83461C12.035 9.65205 12.77 8.50394 12.77 6.93006V5.46506C12.77 4.92567 12.3326 4.4884 11.793 4.4884H11.1738C11.0048 4.19644 10.6891 4 10.3274 4H5.44245C5.08079 4 4.76504 4.19644 4.59612 4.4884H3.977C3.43742 4.4884 3 4.92567 3 5.46506V6.93006C3 8.50389 3.73499 9.65197 5.06081 9.83459C5.58965 10.6073 6.42753 11.1518 7.39644 11.2904V11.8133H6.90794C6.36836 11.8133 5.93094 12.2506 5.93094 12.79H9.83893C9.83893 12.2506 9.40151 11.8133 8.86193 11.8133H8.37343ZM3.977 5.46506H4.46545V7.90667C4.46545 8.13021 4.48692 8.34875 4.5279 8.56033C4.16763 8.23614 3.977 7.6778 3.977 6.93006V5.46506ZM11.3044 5.46506V7.90667C11.3044 8.13026 11.2829 8.34884 11.2419 8.56046C11.6023 8.2363 11.793 7.67791 11.793 6.93006V5.46506H11.3044ZM5.44201 7.90625V4.97625H10.327V7.90625C10.327 9.25475 9.23344 10.3479 7.88449 10.3479C6.53555 10.3479 5.44201 9.25475 5.44201 7.90625Z" fill="#EEB400"/>
</svg>
